<svg xmlns="http://www.w3.org/2000/svg" xmlns:xlink="http://www.w3.org/1999/xlink" width="756pt" height="922pt" viewBox="0.00 0.00 756.00 922.00">
<g id="graph0" class="graph" transform="scale(1 1) rotate(0) translate(4 918.4)">
<title>HastaneRandevuTahlil</title>
<polygon fill="white" stroke="none" points="-4,4 -4,-918.4 751.83,-918.4 751.83,4 -4,4"/>
<!-- Start -->
<g id="node1" class="node">
<title>Start</title>
<path fill="none" stroke="black" d="M682.5,-914.4C682.5,-914.4 651.84,-914.4 651.84,-914.4 645.84,-914.4 639.84,-908.4 639.84,-902.4 639.84,-902.4 639.84,-890.4 639.84,-890.4 639.84,-884.4 645.84,-878.4 651.84,-878.4 651.84,-878.4 682.5,-878.4 682.5,-878.4 688.5,-878.4 694.5,-884.4 694.5,-890.4 694.5,-890.4 694.5,-902.4 694.5,-902.4 694.5,-908.4 688.5,-914.4 682.5,-914.4"/>
<text xml:space="preserve" text-anchor="middle" x="667.17" y="-892.8" font-family="Times,serif" font-size="12.00">BAŞLA</text>
</g>
<!-- TC -->
<g id="node2" class="node">
<title>TC</title>
<path fill="none" stroke="black" d="M725,-841.4C725,-841.4 609.35,-841.4 609.35,-841.4 603.35,-841.4 597.35,-835.4 597.35,-829.4 597.35,-829.4 597.35,-817.4 597.35,-817.4 597.35,-811.4 603.35,-805.4 609.35,-805.4 609.35,-805.4 725,-805.4 725,-805.4 731,-805.4 737,-811.4 737,-817.4 737,-817.4 737,-829.4 737,-829.4 737,-835.4 731,-841.4 725,-841.4"/>
<text xml:space="preserve" text-anchor="middle" x="667.17" y="-819.8" font-family="Times,serif" font-size="12.00">TC Kimlik Numarası Gir</text>
</g>
<!-- Start&#45;&gt;TC -->
<g id="edge1" class="edge">
<title>Start-&gt;TC</title>
<path fill="none" stroke="black" d="M667.17,-878.21C667.17,-870.63 667.17,-861.5 667.17,-852.94"/>
<polygon fill="black" stroke="black" points="670.67,-852.94 667.17,-842.94 663.67,-852.94 670.67,-852.94"/>
</g>
<!-- CheckTC -->
<g id="node3" class="node">
<title>CheckTC</title>
<path fill="none" stroke="black" d="M547.46,-765.77C547.46,-765.77 490.81,-753.03 490.81,-753.03 484.96,-751.72 484.96,-749.08 490.81,-747.77 490.81,-747.77 547.46,-735.03 547.46,-735.03 553.32,-733.72 565.03,-733.72 570.88,-735.03 570.88,-735.03 627.53,-747.77 627.53,-747.77 633.39,-749.08 633.39,-751.72 627.53,-753.03 627.53,-753.03 570.88,-765.77 570.88,-765.77 565.03,-767.08 553.32,-767.08 547.46,-765.77"/>
<text xml:space="preserve" text-anchor="middle" x="559.17" y="-746.8" font-family="Times,serif" font-size="12.00">TC geçerli mi?</text>
</g>
<!-- TC&#45;&gt;CheckTC -->
<g id="edge2" class="edge">
<title>TC-&gt;CheckTC</title>
<path fill="none" stroke="black" d="M640.75,-805.03C624.93,-794.63 604.78,-781.39 588.47,-770.66"/>
<polygon fill="black" stroke="black" points="590.43,-767.76 580.15,-765.19 586.58,-773.61 590.43,-767.76"/>
</g>
<!-- InvalidTC -->
<g id="node4" class="node">
<title>InvalidTC</title>
<path fill="none" stroke="black" d="M680.32,-672.4C680.32,-672.4 622.02,-672.4 622.02,-672.4 616.02,-672.4 610.02,-666.4 610.02,-660.4 610.02,-660.4 610.02,-647.6 610.02,-647.6 610.02,-641.6 616.02,-635.6 622.02,-635.6 622.02,-635.6 680.32,-635.6 680.32,-635.6 686.32,-635.6 692.32,-641.6 692.32,-647.6 692.32,-647.6 692.32,-660.4 692.32,-660.4 692.32,-666.4 686.32,-672.4 680.32,-672.4"/>
<text xml:space="preserve" text-anchor="middle" x="651.17" y="-657.6" font-family="Times,serif" font-size="12.00">Geçersiz TC!</text>
<text xml:space="preserve" text-anchor="middle" x="651.17" y="-643.2" font-family="Times,serif" font-size="12.00">Yeniden dene</text>
</g>
<!-- CheckTC&#45;&gt;InvalidTC -->
<g id="edge3" class="edge">
<title>CheckTC-&gt;InvalidTC</title>
<path fill="none" stroke="black" d="M573.14,-735.06C587.14,-720.7 608.99,-698.28 626.01,-680.82"/>
<polygon fill="black" stroke="black" points="628.4,-683.39 632.87,-673.78 623.38,-678.5 628.4,-683.39"/>
<text xml:space="preserve" text-anchor="middle" x="625.42" y="-701.8" font-family="Times,serif" font-size="14.00">Hayır</text>
</g>
<!-- Menu -->
<g id="node5" class="node">
<title>Menu</title>
<path fill="none" stroke="black" d="M575.83,-679.6C575.83,-679.6 484.51,-679.6 484.51,-679.6 478.51,-679.6 472.51,-673.6 472.51,-667.6 472.51,-667.6 472.51,-640.4 472.51,-640.4 472.51,-634.4 478.51,-628.4 484.51,-628.4 484.51,-628.4 575.83,-628.4 575.83,-628.4 581.83,-628.4 587.83,-634.4 587.83,-640.4 587.83,-640.4 587.83,-667.6 587.83,-667.6 587.83,-673.6 581.83,-679.6 575.83,-679.6"/>
<text xml:space="preserve" text-anchor="middle" x="530.17" y="-664.8" font-family="Times,serif" font-size="12.00">İşlem Seç: </text>
<text xml:space="preserve" text-anchor="middle" x="530.17" y="-650.4" font-family="Times,serif" font-size="12.00">1-Randevu Al </text>
<text xml:space="preserve" text-anchor="middle" x="530.17" y="-636" font-family="Times,serif" font-size="12.00">2-Tahlil Sonucu Gör</text>
</g>
<!-- CheckTC&#45;&gt;Menu -->
<g id="edge5" class="edge">
<title>CheckTC-&gt;Menu</title>
<path fill="none" stroke="black" d="M554.25,-733.39C550.67,-721.73 545.68,-705.49 541.17,-690.81"/>
<polygon fill="black" stroke="black" points="544.58,-689.97 538.29,-681.44 537.88,-692.02 544.58,-689.97"/>
<text xml:space="preserve" text-anchor="middle" x="560.95" y="-701.8" font-family="Times,serif" font-size="14.00">Evet</text>
</g>
<!-- InvalidTC&#45;&gt;TC -->
<g id="edge4" class="edge">
<title>InvalidTC-&gt;TC</title>
<path fill="none" stroke="black" d="M652.86,-672.69C655.62,-701.59 661.13,-759.15 664.45,-793.87"/>
<polygon fill="black" stroke="black" points="660.94,-793.99 665.38,-803.61 667.91,-793.32 660.94,-793.99"/>
</g>
<!-- Choice -->
<g id="node6" class="node">
<title>Choice</title>
<path fill="none" stroke="black" d="M495.97,-587.11C495.97,-587.11 471.41,-577.69 471.41,-577.69 465.81,-575.55 465.81,-571.25 471.41,-569.11 471.41,-569.11 495.97,-559.69 495.97,-559.69 501.57,-557.55 512.77,-557.55 518.38,-559.69 518.38,-559.69 542.93,-569.11 542.93,-569.11 548.53,-571.25 548.53,-575.55 542.93,-577.69 542.93,-577.69 518.38,-587.11 518.38,-587.11 512.77,-589.25 501.57,-589.25 495.97,-587.11"/>
<text xml:space="preserve" text-anchor="middle" x="507.17" y="-569.8" font-family="Times,serif" font-size="12.00">Seçim?</text>
</g>
<!-- Menu&#45;&gt;Choice -->
<g id="edge6" class="edge">
<title>Menu-&gt;Choice</title>
<path fill="none" stroke="black" d="M522.89,-628.13C520.33,-619.37 517.45,-609.51 514.85,-600.64"/>
<polygon fill="black" stroke="black" points="518.25,-599.81 512.09,-591.19 511.54,-601.77 518.25,-599.81"/>
</g>
<!-- Poliklinik -->
<g id="node7" class="node">
<title>Poliklinik</title>
<path fill="none" stroke="black" d="M72.34,-502.6C72.34,-502.6 12,-502.6 12,-502.6 6,-502.6 0,-496.6 0,-490.6 0,-490.6 0,-478.6 0,-478.6 0,-472.6 6,-466.6 12,-466.6 12,-466.6 72.34,-466.6 72.34,-466.6 78.34,-466.6 84.34,-472.6 84.34,-478.6 84.34,-478.6 84.34,-490.6 84.34,-490.6 84.34,-496.6 78.34,-502.6 72.34,-502.6"/>
<text xml:space="preserve" text-anchor="middle" x="42.17" y="-481" font-family="Times,serif" font-size="12.00">Poliklinik Seç</text>
</g>
<!-- Choice&#45;&gt;Poliklinik -->
<g id="edge7" class="edge">
<title>Choice-&gt;Poliklinik</title>
<path fill="none" stroke="black" d="M474.6,-567.48C406.6,-557.02 244.68,-531.2 110.17,-502.6 105.35,-501.58 100.36,-500.45 95.37,-499.28"/>
<polygon fill="black" stroke="black" points="96.52,-495.96 85.98,-497.03 94.88,-502.77 96.52,-495.96"/>
<text xml:space="preserve" text-anchor="middle" x="287.4" y="-524.8" font-family="Times,serif" font-size="14.00">1</text>
</g>
<!-- TahlilKontrol -->
<g id="node11" class="node">
<title>TahlilKontrol</title>
<path fill="none" stroke="black" d="M495.46,-499.99C495.46,-499.99 438.22,-487.21 438.22,-487.21 432.36,-485.91 432.36,-483.29 438.22,-481.99 438.22,-481.99 495.46,-469.21 495.46,-469.21 501.32,-467.91 513.03,-467.91 518.88,-469.21 518.88,-469.21 576.13,-481.99 576.13,-481.99 581.98,-483.29 581.98,-485.91 576.13,-487.21 576.13,-487.21 518.88,-499.99 518.88,-499.99 513.03,-501.29 501.32,-501.29 495.46,-499.99"/>
<text xml:space="preserve" text-anchor="middle" x="507.17" y="-481" font-family="Times,serif" font-size="12.00">Tahlil Var mı?</text>
</g>
<!-- Choice&#45;&gt;TahlilKontrol -->
<g id="edge12" class="edge">
<title>Choice-&gt;TahlilKontrol</title>
<path fill="none" stroke="black" d="M507.17,-555.25C507.17,-543.56 507.17,-527.79 507.17,-514.22"/>
<polygon fill="black" stroke="black" points="510.67,-514.52 507.17,-504.52 503.67,-514.52 510.67,-514.52"/>
<text xml:space="preserve" text-anchor="middle" x="510.67" y="-524.8" font-family="Times,serif" font-size="14.00">2</text>
</g>
<!-- DoktorList -->
<g id="node8" class="node">
<title>DoktorList</title>
<path fill="none" stroke="black" d="M236.83,-502.6C236.83,-502.6 131.51,-502.6 131.51,-502.6 125.51,-502.6 119.51,-496.6 119.51,-490.6 119.51,-490.6 119.51,-478.6 119.51,-478.6 119.51,-472.6 125.51,-466.6 131.51,-466.6 131.51,-466.6 236.83,-466.6 236.83,-466.6 242.83,-466.6 248.83,-472.6 248.83,-478.6 248.83,-478.6 248.83,-490.6 248.83,-490.6 248.83,-496.6 242.83,-502.6 236.83,-502.6"/>
<text xml:space="preserve" text-anchor="middle" x="184.17" y="-481" font-family="Times,serif" font-size="12.00">Doktor Listesini Göster</text>
</g>
<!-- Poliklinik&#45;&gt;DoktorList -->
<g id="edge8" class="edge">
<title>Poliklinik-&gt;DoktorList</title>
<path fill="none" stroke="black" d="M84.61,-484.6C92.36,-484.6 100.11,-484.6 107.86,-484.6"/>
<polygon fill="black" stroke="black" points="107.71,-488.1 117.71,-484.6 107.71,-481.1 107.71,-488.1"/>
</g>
<!-- SaatList -->
<g id="node9" class="node">
<title>SaatList</title>
<path fill="none" stroke="black" d="M395.83,-502.6C395.83,-502.6 296.52,-502.6 296.52,-502.6 290.52,-502.6 284.52,-496.6 284.52,-490.6 284.52,-490.6 284.52,-478.6 284.52,-478.6 284.52,-472.6 290.52,-466.6 296.52,-466.6 296.52,-466.6 395.83,-466.6 395.83,-466.6 401.83,-466.6 407.83,-472.6 407.83,-478.6 407.83,-478.6 407.83,-490.6 407.83,-490.6 407.83,-496.6 401.83,-502.6 395.83,-502.6"/>
<text xml:space="preserve" text-anchor="middle" x="346.17" y="-481" font-family="Times,serif" font-size="12.00">Uygun Saatleri Göster</text>
</g>
<!-- DoktorList&#45;&gt;SaatList -->
<g id="edge9" class="edge">
<title>DoktorList-&gt;SaatList</title>
<path fill="none" stroke="black" d="M249.04,-484.6C257.03,-484.6 265.03,-484.6 273.02,-484.6"/>
<polygon fill="black" stroke="black" points="272.81,-488.1 282.81,-484.6 272.81,-481.1 272.81,-488.1"/>
</g>
<!-- RandevuOnay -->
<g id="node10" class="node">
<title>RandevuOnay</title>
<path fill="none" stroke="black" d="M428.16,-359.8C428.16,-359.8 262.18,-359.8 262.18,-359.8 256.18,-359.8 250.18,-353.8 250.18,-347.8 250.18,-347.8 250.18,-335.8 250.18,-335.8 250.18,-329.8 256.18,-323.8 262.18,-323.8 262.18,-323.8 428.16,-323.8 428.16,-323.8 434.16,-323.8 440.16,-329.8 440.16,-335.8 440.16,-335.8 440.16,-347.8 440.16,-347.8 440.16,-353.8 434.16,-359.8 428.16,-359.8"/>
<text xml:space="preserve" text-anchor="middle" x="345.17" y="-338.2" font-family="Times,serif" font-size="12.00">Randevu Onayı ve SMS Gönderimi</text>
</g>
<!-- SaatList&#45;&gt;RandevuOnay -->
<g id="edge10" class="edge">
<title>SaatList-&gt;RandevuOnay</title>
<path fill="none" stroke="black" d="M346.05,-466.34C345.88,-442.69 345.58,-399.92 345.38,-371.44"/>
<polygon fill="black" stroke="black" points="348.88,-371.69 345.31,-361.72 341.88,-371.74 348.88,-371.69"/>
</g>
<!-- Again -->
<g id="node17" class="node">
<title>Again</title>
<path fill="none" stroke="black" d="M531.24,-123.52C531.24,-123.52 387.74,-108.08 387.74,-108.08 381.77,-107.44 381.77,-106.16 387.74,-105.52 387.74,-105.52 531.24,-90.08 531.24,-90.08 537.21,-89.44 549.14,-89.44 555.1,-90.08 555.1,-90.08 698.6,-105.52 698.6,-105.52 704.57,-106.16 704.57,-107.44 698.6,-108.08 698.6,-108.08 555.1,-123.52 555.1,-123.52 549.14,-124.16 537.21,-124.16 531.24,-123.52"/>
<text xml:space="preserve" text-anchor="middle" x="543.17" y="-103.2" font-family="Times,serif" font-size="12.00">Başka işlem yapmak ister misiniz?</text>
</g>
<!-- RandevuOnay&#45;&gt;Again -->
<g id="edge11" class="edge">
<title>RandevuOnay-&gt;Again</title>
<path fill="none" stroke="black" d="M343,-323.49C340.68,-297.84 339.85,-249.17 361.17,-215.8 390.57,-169.81 447.14,-140.82 489.45,-124.6"/>
<polygon fill="black" stroke="black" points="490.56,-127.92 498.72,-121.17 488.13,-121.35 490.56,-127.92"/>
</g>
<!-- NoTahlil -->
<g id="node12" class="node">
<title>NoTahlil</title>
<path fill="none" stroke="black" d="M454.83,-251.8C454.83,-251.8 375.51,-251.8 375.51,-251.8 369.51,-251.8 363.51,-245.8 363.51,-239.8 363.51,-239.8 363.51,-227.8 363.51,-227.8 363.51,-221.8 369.51,-215.8 375.51,-215.8 375.51,-215.8 454.83,-215.8 454.83,-215.8 460.83,-215.8 466.83,-221.8 466.83,-227.8 466.83,-227.8 466.83,-239.8 466.83,-239.8 466.83,-245.8 460.83,-251.8 454.83,-251.8"/>
<text xml:space="preserve" text-anchor="middle" x="415.17" y="-230.2" font-family="Times,serif" font-size="12.00">Tahlil Kaydı Yok</text>
</g>
<!-- TahlilKontrol&#45;&gt;NoTahlil -->
<g id="edge13" class="edge">
<title>TahlilKontrol-&gt;NoTahlil</title>
<path fill="none" stroke="black" d="M496.21,-468.8C486.56,-455.14 472.74,-433.98 464.19,-413.8 448.06,-375.79 452.08,-363.62 441.17,-323.8 435.56,-303.3 428.82,-280.26 423.6,-262.76"/>
<polygon fill="black" stroke="black" points="427.08,-262.17 420.86,-253.6 420.38,-264.18 427.08,-262.17"/>
<text xml:space="preserve" text-anchor="middle" x="481.68" y="-391.6" font-family="Times,serif" font-size="14.00">Hayır</text>
</g>
<!-- SonucHazir -->
<g id="node13" class="node">
<title>SonucHazir</title>
<path fill="none" stroke="black" d="M589.39,-411.51C589.39,-411.51 520.23,-398.09 520.23,-398.09 514.34,-396.94 514.34,-394.66 520.23,-393.51 520.23,-393.51 589.39,-380.09 589.39,-380.09 595.28,-378.94 607.06,-378.94 612.95,-380.09 612.95,-380.09 682.11,-393.51 682.11,-393.51 688,-394.66 688,-396.94 682.11,-398.09 682.11,-398.09 612.95,-411.51 612.95,-411.51 607.06,-412.66 595.28,-412.66 589.39,-411.51"/>
<text xml:space="preserve" text-anchor="middle" x="601.17" y="-392.2" font-family="Times,serif" font-size="12.00">Sonuç Hazır mı?</text>
</g>
<!-- TahlilKontrol&#45;&gt;SonucHazir -->
<g id="edge15" class="edge">
<title>TahlilKontrol-&gt;SonucHazir</title>
<path fill="none" stroke="black" d="M522.27,-469.65C537.26,-455.82 560.44,-434.41 577.8,-418.38"/>
<polygon fill="black" stroke="black" points="579.71,-421.38 584.68,-412.03 574.96,-416.24 579.71,-421.38"/>
<text xml:space="preserve" text-anchor="middle" x="575.42" y="-436" font-family="Times,serif" font-size="14.00">Evet</text>
</g>
<!-- NoTahlil&#45;&gt;Again -->
<g id="edge14" class="edge">
<title>NoTahlil-&gt;Again</title>
<path fill="none" stroke="black" d="M432.97,-215.42C455.43,-193.48 494.16,-155.66 519.21,-131.2"/>
<polygon fill="black" stroke="black" points="521.35,-134.01 526.06,-124.51 516.46,-129 521.35,-134.01"/>
</g>
<!-- SonucGor -->
<g id="node14" class="node">
<title>SonucGor</title>
<path fill="none" stroke="black" d="M682.5,-305.8C682.5,-305.8 575.85,-305.8 575.85,-305.8 569.85,-305.8 563.85,-299.8 563.85,-293.8 563.85,-293.8 563.85,-281.8 563.85,-281.8 563.85,-275.8 569.85,-269.8 575.85,-269.8 575.85,-269.8 682.5,-269.8 682.5,-269.8 688.5,-269.8 694.5,-275.8 694.5,-281.8 694.5,-281.8 694.5,-293.8 694.5,-293.8 694.5,-299.8 688.5,-305.8 682.5,-305.8"/>
<text xml:space="preserve" text-anchor="middle" x="629.17" y="-284.2" font-family="Times,serif" font-size="12.00">Tahlil Sonucunu Göster</text>
</g>
<!-- SonucHazir&#45;&gt;SonucGor -->
<g id="edge16" class="edge">
<title>SonucHazir-&gt;SonucGor</title>
<path fill="none" stroke="black" d="M605.55,-378.24C609.87,-361.86 616.57,-336.49 621.74,-316.95"/>
<polygon fill="black" stroke="black" points="625.09,-317.97 624.26,-307.41 618.32,-316.19 625.09,-317.97"/>
<text xml:space="preserve" text-anchor="middle" x="632.14" y="-337.6" font-family="Times,serif" font-size="14.00">Evet</text>
</g>
<!-- Bekle -->
<g id="node15" class="node">
<title>Bekle</title>
<path fill="none" stroke="black" d="M602.66,-251.8C602.66,-251.8 483.69,-251.8 483.69,-251.8 477.69,-251.8 471.69,-245.8 471.69,-239.8 471.69,-239.8 471.69,-227.8 471.69,-227.8 471.69,-221.8 477.69,-215.8 483.69,-215.8 483.69,-215.8 602.66,-215.8 602.66,-215.8 608.66,-215.8 614.66,-221.8 614.66,-227.8 614.66,-227.8 614.66,-239.8 614.66,-239.8 614.66,-245.8 608.66,-251.8 602.66,-251.8"/>
<text xml:space="preserve" text-anchor="middle" x="543.17" y="-230.2" font-family="Times,serif" font-size="12.00">Sonuç Henüz Hazır Değil</text>
</g>
<!-- SonucHazir&#45;&gt;Bekle -->
<g id="edge19" class="edge">
<title>SonucHazir-&gt;Bekle</title>
<path fill="none" stroke="black" d="M587.1,-380.4C581.84,-374.41 576.18,-367.15 572.19,-359.8 555.56,-329.26 548.42,-289.49 545.38,-263.1"/>
<polygon fill="black" stroke="black" points="548.9,-263.1 544.41,-253.5 541.94,-263.8 548.9,-263.1"/>
<text xml:space="preserve" text-anchor="middle" x="589.68" y="-337.6" font-family="Times,serif" font-size="14.00">Hayır</text>
</g>
<!-- PDF -->
<g id="node16" class="node">
<title>PDF</title>
<path fill="none" stroke="black" d="M673.84,-197.8C673.84,-197.8 584.51,-197.8 584.51,-197.8 578.51,-197.8 572.51,-191.8 572.51,-185.8 572.51,-185.8 572.51,-173.8 572.51,-173.8 572.51,-167.8 578.51,-161.8 584.51,-161.8 584.51,-161.8 673.84,-161.8 673.84,-161.8 679.84,-161.8 685.84,-167.8 685.84,-173.8 685.84,-173.8 685.84,-185.8 685.84,-185.8 685.84,-191.8 679.84,-197.8 673.84,-197.8"/>
<text xml:space="preserve" text-anchor="middle" x="629.17" y="-176.2" font-family="Times,serif" font-size="12.00">PDF İndir Seçeneği</text>
</g>
<!-- SonucGor&#45;&gt;PDF -->
<g id="edge17" class="edge">
<title>SonucGor-&gt;PDF</title>
<path fill="none" stroke="black" d="M629.17,-269.77C629.17,-253.56 629.17,-228.86 629.17,-209.59"/>
<polygon fill="black" stroke="black" points="632.67,-209.65 629.17,-199.65 625.67,-209.65 632.67,-209.65"/>
</g>
<!-- Bekle&#45;&gt;Again -->
<g id="edge20" class="edge">
<title>Bekle-&gt;Again</title>
<path fill="none" stroke="black" d="M543.17,-215.42C543.17,-194.99 543.17,-160.79 543.17,-136.42"/>
<polygon fill="black" stroke="black" points="546.67,-136.55 543.17,-126.55 539.67,-136.55 546.67,-136.55"/>
</g>
<!-- PDF&#45;&gt;Again -->
<g id="edge18" class="edge">
<title>PDF-&gt;Again</title>
<path fill="none" stroke="black" d="M608.35,-161.61C596.91,-152.17 582.59,-140.34 570.28,-130.18"/>
<polygon fill="black" stroke="black" points="572.86,-127.77 562.92,-124.1 568.4,-133.17 572.86,-127.77"/>
</g>
<!-- Again&#45;&gt;TC -->
<g id="edge21" class="edge">
<title>Again-&gt;TC</title>
<path fill="none" stroke="black" d="M647.81,-114.03C686.99,-122.6 722.17,-140.85 722.17,-178.8 722.17,-751.4 722.17,-751.4 722.17,-751.4 722.17,-769.01 711.47,-784.9 699.5,-797.16"/>
<polygon fill="black" stroke="black" points="697.11,-794.6 692.24,-804.01 701.92,-799.7 697.11,-794.6"/>
<text xml:space="preserve" text-anchor="middle" x="735" y="-480.4" font-family="Times,serif" font-size="14.00">Evet</text>
</g>
<!-- End -->
<g id="node18" class="node">
<title>End</title>
<path fill="none" stroke="black" d="M558.17,-36C558.17,-36 528.17,-36 528.17,-36 522.17,-36 516.17,-30 516.17,-24 516.17,-24 516.17,-12 516.17,-12 516.17,-6 522.17,0 528.17,0 528.17,0 558.17,0 558.17,0 564.17,0 570.17,-6 570.17,-12 570.17,-12 570.17,-24 570.17,-24 570.17,-30 564.17,-36 558.17,-36"/>
<text xml:space="preserve" text-anchor="middle" x="543.17" y="-14.4" font-family="Times,serif" font-size="12.00">BİTİR</text>
</g>
<!-- Again&#45;&gt;End -->
<g id="edge22" class="edge">
<title>Again-&gt;End</title>
<path fill="none" stroke="black" d="M543.17,-88.65C543.17,-76.96 543.17,-61.19 543.17,-47.62"/>
<polygon fill="black" stroke="black" points="546.67,-47.92 543.17,-37.92 539.67,-47.92 546.67,-47.92"/>
<text xml:space="preserve" text-anchor="middle" x="560.67" y="-58.2" font-family="Times,serif" font-size="14.00">Hayır</text>
</g>
</g>
</svg>